<svg width="77" height="64" viewBox="0 0 77 64" fill="none" xmlns="http://www.w3.org/2000/svg">
<path d="M17.2656 38.8698V28.2448L10.625 31.875L0 13.4583L23.375 0H27.8906C28.8351 2.83333 29.9566 5.3125 31.2552 7.4375C32.5538 9.5625 34.974 10.625 38.5156 10.625C42.0573 10.625 44.4774 9.5625 45.776 7.4375C47.0747 5.3125 48.1962 2.83333 49.1406 0H53.6563L76.9427 13.5469L66.4062 31.875L59.7656 28.2448V45.2448L54.1875 50.1146C53.7743 50.4688 53.3021 50.7491 52.7708 50.9557C52.2396 51.1623 51.7083 51.2656 51.1771 51.2656C50.8229 51.2656 50.4097 51.1476 49.9375 50.9115C49.4653 50.6753 48.9931 50.3802 48.5208 50.026L39.1354 41.9688C37.2465 40.316 35.1215 39.1059 32.7604 38.3385C30.3993 37.5712 28.0087 37.1875 25.5885 37.1875C24.1719 37.1875 22.77 37.3203 21.3828 37.5859C19.9957 37.8516 18.6233 38.2795 17.2656 38.8698ZM12.4844 57.9948L7.88021 52.5938L15.5833 46.0417C16.941 44.8611 18.4905 43.9609 20.2318 43.3411C21.9731 42.7214 23.7882 42.4115 25.6771 42.4115C27.566 42.4115 29.3663 42.7214 31.0781 43.3411C32.7899 43.9609 34.3247 44.8611 35.6823 46.0417L45.9531 54.8073C46.6615 55.3976 47.5026 55.855 48.4766 56.1797C49.4505 56.5043 50.4392 56.6667 51.4427 56.6667C52.5052 56.6667 53.4939 56.5191 54.4089 56.224C55.3238 55.9288 56.1354 55.4566 56.8438 54.8073L64.5469 48.1667L69.151 53.6562L61.4479 60.2083C60.0903 61.3889 58.5556 62.2743 56.8438 62.8646C55.1319 63.4549 53.3316 63.75 51.4427 63.75C49.5538 63.75 47.7387 63.4549 45.9974 62.8646C44.2561 62.2743 42.7066 61.3889 41.349 60.2083L31.0781 51.4427C30.3698 50.8524 29.5582 50.395 28.6432 50.0703C27.7283 49.7457 26.7396 49.5833 25.6771 49.5833C24.6736 49.5833 23.6849 49.7457 22.7109 50.0703C21.737 50.395 20.8958 50.8524 20.1875 51.4427L12.4844 57.9948Z" fill="#FEFEFE"/>
</svg>
